# AST/ASF file generated using VICON BodyLanguage
# -----------------------------------------------
:version 1.10
:name VICON
:units
  mass 1.0
  length 0.45
  angle deg
:documentation
   .ast/.asf automatically generated from VICON data using
   VICON BodyBuilder and BodyLanguage model FoxedUp or BRILLIANT.MOD
:root
   order TX TY TZ RX RY RZ
   axis XYZ
   position 0 0 0  
   orientation 0 0 0 
:bonedata
  begin
     id 1 
     name lhipjoint
     direction 0.624716 -0.669793 0.401383 
     length 2.38238 
     axis 0 0 0  XYZ
  end
  begin
     id 2 
     name lfemur
     direction 0.34202 -0.939693 0  
     length 6.4574  
     axis 0 0 20  XYZ
    dof rx ry rz
    limits (-160.0 20.0)
           (-70.0 70.0)
           (-60.0 70.0)
  end
  begin
     id 3 
     name ltibia
     direction 0.34202 -0.939693 0   
     length 7.68739   
     axis 0 0 20   XYZ
    dof rx
    limits (-10.0 170.0)
  end
  begin
     id 4 
     name lfoot
     direction 0.0681309 -0.187188 0.979959   
     length 2.46615   
     axis -90 7.62852e-016 20   XYZ
    dof rx rz
    limits (-45.0 90.0)
           (-70.0 20.0)
  end
  begin
     id 5 
     name ltoes
     direction 1.53566e-011 -4.21819e-011 1   
     length 1.2376   
     axis -90 7.62852e-016 20   XYZ
    dof rx
    limits (-90.0 20.0)
  end
  begin
     id 6 
     name rhipjoint
     direction -0.644473 -0.655875 0.393043   
     length 2.43293  
     axis 0 0 0  XYZ 
  end
  begin
     id 7 
     name rfemur
     direction -0.34202 -0.939693 0   
     length 6.7025   
     axis 0 0 -20   XYZ
    dof rx ry rz
    limits (-160.0 20.0)
           (-70.0 70.0)
           (-70.0 60.0)
  end
  begin
     id 8 
     name rtibia
     direction -0.34202 -0.939693 0   
     length 7.80547   
     axis 0 0 -20   XYZ
    dof rx
    limits (-10.0 170.0)
 end
 begin
     id 9 
     name rfoot
     direction -0.0756734 -0.207911 0.975216   
     length 2.40315  
     axis -90 -7.62852e-016 -20   XYZ
    dof rx rz
    limits (-45.0 90.0)
           (-20.0 70.0)
  end
  begin
     id 10 
     name rtoes
     direction -1.5353e-011 -4.21879e-011 1   
     length 1.20477   
     axis -90 -7.62852e-016 -20   XYZ
    dof rx
    limits (-90.0 20.0)
  end
  begin
     id 11 
     name lowerback
     direction 0.0160353 0.987463 -0.157037   
     length 2.18572   
     axis 0 0 0   XYZ
    dof rx ry rz
    limits (-20.0 45.0)
           (-30.0 30.0)
           (-30.0 30.0)
  end
  begin
     id 12 
     name upperback
     direction -0.00499661 0.999756 0.0215076   
     length 2.18016   
     axis 0 0 0   XYZ
    dof rx ry rz
    limits (-20.0 45.0)
           (-30.0 30.0)
           (-30.0 30.0)
  end
  begin
     id 13 
     name thorax
     direction -0.00921346 0.995333 0.0960619   
     length 2.24923   
     axis 0 0 0   XYZ
    dof rx ry rz
    limits (-20.0 45.0)
           (-30.0 30.0)
           (-30.0 30.0)
  end
  begin
     id 14 
     name lowerneck
     direction 0.0274184 0.991181 0.12965   
     length 1.70911   
     axis 0 0 0   XYZ
    dof rx ry rz
    limits (-20.0 45.0)
           (-30.0 30.0)
           (-30.0 30.0)
  end
  begin
     id 15 
     name upperneck
     direction 0.0015627 0.999959 -0.00893559   
     length 1.69312   
     axis 0 0 0   XYZ
    dof rx ry rz
    limits (-20.0 45.0)
           (-30.0 30.0)
           (-30.0 30.0)
  end
  begin
     id 16
     name head
     direction -0.00230242 0.999856 -0.0168327  
     length 1.80241  
     axis 0 0 0   XYZ
    dof rx ry rz
    limits (-20.0 45.0)
           (-30.0 30.0)
           (-30.0 30.0)
  end
  begin
     id 17 
     name lclavicle
     direction 0.955523 0.290741 -0.0494489  
     length 3.84275  
     axis 0 0 0   XYZ
    dof ry rz
    limits (-20.0 10.0)
           (0.0 20.0)
  end
  begin
     id 18 
     name lhumerus
     direction 1 -4.48967e-011 -3.18382e-028   
     length 5.17714   
     axis 180 -30 -90   XYZ
    dof rx ry rz
    limits (-60.0 90.0)
           (-90.0 90.0)
           (-90.0 90.0)
  end
  begin
     id 19
     name lradius
     direction 1 -4.48968e-011 -2.22911e-027   
     length 3.43679   
     axis 180 -30 -90   XYZ
    dof rx
    limits (-10.0 170.0)
  end
  begin
     id 20
     name lwrist
     direction 1 -4.48951e-011 -6.32245e-027   
     length 1.7184   
     axis 3.57107e-015 90 90   XYZ
    dof ry
    limits (-180.0 0.0)
 end
  begin
     id 21 
     name lhand
     direction 1 -4.48924e-011 -1.26431e-026   
     length 0.573117   
     axis 8.06912e-015 90 90   XYZ
    dof rx rz
    limits (-90.0 90.0)
           (-45.0 45.0)
  end
  begin
     id 22 
     name lfingers
     direction 1 -4.49001e-011 -2.52965e-026   
     length 0.462062   
     axis 1.61381e-014 90 90   XYZ
    dof rx
    limits (0.0 90.0)
  end
  begin
     id 23
     name lthumb
     direction 0.707107 -6.35008e-011 0.707107   
     length 0.663431   
     axis -90 45 -1.62303e-014   XYZ
    dof rx rz
    limits (-45.0 45.0)
           (-45.0 45.0)
  end
  begin
     id 24 
     name rclavicle
     direction -0.963917 0.256881 -0.0698287   
     length 3.73057  
     axis 0 0 0   XYZ 
    dof ry rz
    limits (-10.0 20.0)
           (-20.0 0.0)
  end
  begin
     id 25 
     name rhumerus
     direction -1 -4.48962e-011 -2.73982e-027  
     length 5.23908   
     axis 180 30 90   XYZ
    dof rx ry rz
    limits (-90.0 60.0)
           (-90.0 90.0)
           (-90.0 90.0)
  end
  begin
     id 26 
     name rradius
     direction -1 -4.48968e-011 -4.33218e-027   
     length 3.46485   
     axis 180 30 90   XYZ
    dof rx
    limits (-10.0 170.0)
  end
  begin
     id 27 
     name rwrist
     direction -1 -4.48989e-011 -6.32372e-027   
     length 1.73243   
     axis 3.57107e-015 -90 -90   XYZ
    dof ry
    limits (-180.0 0.0)
  end
  begin
     id 28
     name rhand
     direction -1 -4.48948e-011 -1.26448e-026   
     length 0.608752   
     axis 8.06912e-015 -90 -90   XYZ
    dof rx rz
    limits (-90.0 90.0)
           (-45.0 45.0)
  end
  begin
     id 29
     name rfingers
     direction -1 -4.48962e-011 -2.52913e-026   
     length 0.490792   
     axis 1.61381e-014 -90 -90   XYZ
    dof rx
    limits (0.0 90.0)
  end
  begin
     id 30
     name rthumb
     direction -0.707107 -6.34878e-011 0.707107   
     length 0.704682   
     axis -90 -45 1.62303e-014   XYZ
    dof rx rz
    limits (-45.0 45.0)
           (-45.0 45.0)
  end
:hierarchy
  begin
    root lhipjoint rhipjoint lowerback
    lhipjoint lfemur
    lfemur ltibia
    ltibia lfoot
    lfoot ltoes
    rhipjoint rfemur
    rfemur rtibia
    rtibia rfoot
    rfoot rtoes
    lowerback upperback
    upperback thorax
    thorax lowerneck lclavicle rclavicle
    lowerneck upperneck
    upperneck head
    lclavicle lhumerus
    lhumerus lradius
    lradius lwrist
    lwrist lhand lthumb
    lhand lfingers
    rclavicle rhumerus
    rhumerus rradius
    rradius rwrist
    rwrist rhand rthumb
    rhand rfingers
  end

#!OML:ASF G:\JayActor3\Patient Classification 1\Patient 1\Session 6\male.ASF
:FULLY-SPECIFIED
:DEGREES
61
root 47.8461 15.8971 13.6865 176.788 -51.9643 -178.826
lowerback -0.570211 -1.64803 -1.47044
upperback 3.91924 -2.2625 0.493948
thorax 4.43498 -1.22503 1.22835
lowerneck -4.38785 -3.04523 -1.99721
upperneck 7.22374 -4.79491 8.2799
head 3.43358 -2.21519 2.90133
rclavicle -1.56232e-014 -3.97569e-016
rhumerus -32.4705 -9.54471 -81.9958
rradius 26.3343
rwrist 4.01673
rhand -17.6666 -5.21027
rfingers 7.12502
rthumb 8.59206 -35.0154
lclavicle -1.56232e-014 -3.97569e-016
lhumerus -27.5929 15.2068 82.5969
lradius 25.8538
lwrist 23.3144
lhand -15.8505 7.66285
lfingers 7.12502
lthumb 10.3444 37.3884
rfemur -9.54371 2.85564 20.3752
rtibia 37.3719
rfoot -25.9981 -10.9721
rtoes 2.60237
lfemur -0.888084 7.68293 -19.3542
ltibia 24.2909
lfoot -20.3085 9.58749
ltoes -0.472921
62
root 47.8486 15.8979 13.6881 176.837 -51.9959 -178.872
lowerback -0.579549 -1.64212 -1.50098
upperback 3.93108 -2.25355 0.484283
thorax 4.45318 -1.22182 1.23532
lowerneck -4.36378 -3.04629 -1.99135
upperneck 7.17369 -4.79218 8.28161
head 3.41126 -2.2149 2.90068
rclavicle -9.1795e-014 7.10655e-015
rhumerus -32.4 -9.4101 -82.0666
rradius 26.5109
rwrist 3.95658
rhand -17.6267 -5.1623
rfingers 7.12502
rthumb 8.6306 -34.9659
lclavicle -9.1795e-014 7.10655e-015
lhumerus -27.6096 15.2718 82.5747
lradius 25.7374
lwrist 23.2732
lhand -15.8303 7.70812
lfingers 7.12502
lthumb 10.3638 37.4327
rfemur -9.57185 2.85807 20.3451
rtibia 37.3819
rfoot -26.0088 -10.9839
rtoes 2.60849
lfemur -0.908881 7.69069 -19.3851
ltibia 24.2674
lfoot -20.2752 9.56185
ltoes -0.475421
63
root 47.8507 15.8984 13.6896 176.893 -52.0273 -178.929
lowerback -0.59538 -1.63808 -1.53302
upperback 3.94583 -2.2468 0.469485
thorax 4.47803 -1.21974 1.23746
lowerneck -4.34095 -3.04806 -1.9835
upperneck 7.12724 -4.79114 8.28478
head 3.39055 -2.21532 2.90012
rclavicle 8.76268e-014 -5.81445e-015
rhumerus -32.326 -9.24222 -82.1615
rradius 26.7106
rwrist 3.83706
rhand -17.6262 -5.17442
rfingers 7.12502
rthumb 8.63108 -34.978
lclavicle 8.76268e-014 -5.81445e-015
lhumerus -27.6244 15.3545 82.5385
lradius 25.6055
lwrist 23.2117
lhand -15.8029 7.73848
lfingers 7.12502
lthumb 10.3903 37.4618
rfemur -9.59669 2.84838 20.3043
rtibia 37.3929
rfoot -26.015 -10.9885
rtoes 2.61648
lfemur -0.925503 7.71029 -19.4209
ltibia 24.244
lfoot -20.2443 9.52201
ltoes -0.462086
64
root 47.8526 15.8988 13.6908 176.948 -52.0622 -178.985
lowerback -0.615638 -1.63765 -1.56556
upperback 3.96012 -2.24474 0.455007
thorax 4.50511 -1.22001 1.23987
lowerneck -4.31539 -3.04956 -1.97572
upperneck 7.08328 -4.78983 8.28626
head 3.37011 -2.2157 2.89903
rclavicle -3.39735e-014 9.69075e-015
rhumerus -32.2523 -9.03871 -82.2758
rradius 26.9322
rwrist 3.65476
rhand -17.6378 -5.21882
rfingers 7.12502
rthumb 8.6199 -35.0228
lclavicle -3.39735e-014 9.69075e-015
lhumerus -27.6442 15.4595 82.4908
lradius 25.4617
lwrist 23.1238
lhand -15.768 7.76884
lfingers 7.12502
lthumb 10.424 37.4904
rfemur -9.61913 2.83278 20.2633
rtibia 37.4036
rfoot -26.0263 -10.9831
rtoes 2.63139
lfemur -0.942473 7.73439 -19.4537
ltibia 24.222
lfoot -20.2162 9.47273
ltoes -0.447791
65
root 47.8543 15.8991 13.6917 177.002 -52.0909 -179.035
lowerback -0.640414 -1.63757 -1.59448
upperback 3.97311 -2.24308 0.440782
thorax 4.53329 -1.22033 1.24037
lowerneck -4.28783 -3.05033 -1.96923
upperneck 7.04409 -4.78803 8.28852
head 3.351 -2.21586 2.89855
rclavicle 5.46658e-014 -3.67752e-015
rhumerus -32.1805 -8.82179 -82.396
rradius 27.168
rwrist 3.45973
rhand -17.6365 -5.26155
rfingers 7.12502
rthumb 8.62114 -35.0655
lclavicle 5.46658e-014 -3.67752e-015
lhumerus -27.673 15.5812 82.4307
lradius 25.3115
lwrist 23.0156
lhand -15.7317 7.78382
lfingers 7.12502
lthumb 10.459 37.5037
rfemur -9.64203 2.81932 20.2255
rtibia 37.4129
rfoot -26.0323 -10.9802
rtoes 2.63263
lfemur -0.960882 7.76119 -19.4828
ltibia 24.203
lfoot -20.191 9.42565
ltoes -0.436269
66
root 47.8559 15.8994 13.6923 177.048 -52.1209 -179.077
lowerback -0.662175 -1.63895 -1.62315
upperback 3.98312 -2.24345 0.429621
thorax 4.55685 -1.22162 1.24395
lowerneck -4.25763 -3.05205 -1.95998
upperneck 7.01091 -4.78773 8.28506
head 3.33323 -2.21682 2.89557
rclavicle 4.27822e-014 -8.19987e-015
rhumerus -32.1135 -8.59398 -82.5191
rradius 27.4171
rwrist 3.2414
rhand -17.6379 -5.31092
rfingers 7.12502
rthumb 8.61979 -35.1149
lclavicle 4.27822e-014 -8.19987e-015
lhumerus -27.7083 15.7116 82.3634
lradius 25.152
lwrist 22.8937
lhand -15.6979 7.79388
lfingers 7.12502
lthumb 10.4915 37.5121
rfemur -9.66158 2.80803 20.1947
rtibia 37.4201
rfoot -26.0382 -10.9852
rtoes 2.63001
lfemur -0.980749 7.79027 -19.5042
ltibia 24.1887
lfoot -20.169 9.37586
ltoes -0.435322
67
root 47.8573 15.8996 13.6928 177.089 -52.1453 -179.114
lowerback -0.68379 -1.64043 -1.64751
upperback 3.99148 -2.24401 0.418546
thorax 4.57844 -1.22281 1.24524
lowerneck -4.23064 -3.05218 -1.94858
upperneck 6.98611 -4.786 8.27921
head 3.31873 -2.2169 2.89148
rclavicle 7.04257e-014 -8.64713e-015
rhumerus -32.0501 -8.34921 -82.6521
rradius 27.6794
rwrist 2.98787
rhand -17.6447 -5.37437
rfingers 7.12502
rthumb 8.61325 -35.1787
lclavicle 7.04257e-014 -8.64713e-015
lhumerus -27.7509 15.8498 82.2876
lradius 24.9881
lwrist 22.765
lhand -15.6706 7.81143
lfingers 7.12502
lthumb 10.5179 37.5283
rfemur -9.68017 2.80157 20.1676
rtibia 37.4262
rfoot -26.0456 -10.9824
rtoes 2.61712
lfemur -1.00057 7.82233 -19.5215
ltibia 24.1783
lfoot -20.1502 9.33107
ltoes -0.44648
68
root 47.8588 15.8996 13.6933 177.129 -52.1651 -179.149
lowerback -0.703237 -1.64162 -1.66929
upperback 3.99895 -2.24421 0.406345
thorax 4.59771 -1.22367 1.24403
lowerneck -4.20276 -3.05183 -1.93674
upperneck 6.96366 -4.78396 8.27376
head 3.30486 -2.2168 2.88748
rclavicle -3.06501e-014 7.7526e-015
rhumerus -31.9887 -8.09049 -82.7927
rradius 27.9528
rwrist 2.70614
rhand -17.6812 -5.45882
rfingers 7.12502
rthumb 8.57802 -35.2646
lclavicle -3.06501e-014 7.7526e-015
lhumerus -27.7952 15.9863 82.2068
lradius 24.8177
lwrist 22.6387
lhand -15.6525 7.83546
lfingers 7.12502
lthumb 10.5353 37.5514
rfemur -9.69929 2.79673 20.1407
rtibia 37.4323
rfoot -26.043 -10.9916
rtoes 2.57461
lfemur -1.02013 7.85705 -19.5386
ltibia 24.1703
lfoot -20.1346 9.29111
ltoes -0.463193
69
root 47.8601 15.8994 13.694 177.175 -52.1848 -179.19
lowerback -0.720306 -1.64415 -1.69356
upperback 4.00433 -2.24604 0.392793
thorax 4.61354 -1.22535 1.24286
lowerneck -4.17619 -3.0511 -1.92576
upperneck 6.94506 -4.78174 8.26866
head 3.29261 -2.21656 2.88381
rclavicle -1.29508e-013 2.32578e-014
rhumerus -31.928 -7.83321 -82.9318
rradius 28.229
rwrist 2.42567
rhand -17.7487 -5.57075
rfingers 7.12502
rthumb 8.51287 -35.3792
lclavicle -1.29508e-013 2.32578e-014
lhumerus -27.8447 16.1269 82.1204
lradius 24.642
lwrist 22.5075
lhand -15.6343 7.856
lfingers 7.12502
lthumb 10.5529 37.5711
rfemur -9.72066 2.79043 20.1093
rtibia 37.4401
rfoot -26.0384 -11.0049
rtoes 2.53693
lfemur -1.03954 7.89666 -19.5593
ltibia 24.1619
lfoot -20.1205 9.24836
ltoes -0.480841
70
root 47.8615 15.8991 13.6947 177.222 -52.207 -179.235
lowerback -0.73198 -1.64827 -1.71936
upperback 4.00855 -2.24998 0.378057
thorax 4.62518 -1.22808 1.2414
lowerneck -4.15474 -3.04972 -1.91522
upperneck 6.9321 -4.77925 8.26459
head 3.28334 -2.21595 2.88059
rclavicle 3.81045e-014 -8.34896e-015
rhumerus -31.8683 -7.58579 -83.0629
rradius 28.509
rwrist 2.18187
rhand -17.7964 -5.70072
rfingers 7.12502
rthumb 8.4668 -35.511
lclavicle 3.81045e-014 -8.34896e-015
lhumerus -27.8997 16.2713 82.0296
lradius 24.4631
lwrist 22.3695
lhand -15.6143 7.88548
lfingers 7.12502
lthumb 10.5722 37.5996
rfemur -9.74138 2.78093 20.0746
rtibia 37.4499
rfoot -26.0374 -11.013
rtoes 2.5018
lfemur -1.05594 7.93629 -19.5826
ltibia 24.1517
lfoot -20.1073 9.2041
ltoes -0.492416
71
root 47.8628 15.8986 13.6956 177.277 -52.231 -179.291
lowerback -0.737895 -1.65452 -1.75096
upperback 4.01092 -2.25658 0.361242
thorax 4.63188 -1.23225 1.24113
lowerneck -4.1348 -3.04736 -1.90976
upperneck 6.92231 -4.77581 8.26505
head 3.27577 -2.21481 2.87997
rclavicle -7.55133e-014 2.1916e-014
rhumerus -31.8089 -7.35681 -83.1812
rradius 28.7873
rwrist 1.99299
rhand -17.8305 -5.84986
rfingers 7.12502
rthumb 8.43394 -35.6615
lclavicle -7.55133e-014 2.1916e-014
lhumerus -27.9658 16.4223 81.9326
lradius 24.287
lwrist 22.2274
lhand -15.6007 7.91205
lfingers 7.12502
lthumb 10.5854 37.6255
rfemur -9.76173 2.76525 20.0306
rtibia 37.4613
rfoot -26.036 -11.0191
rtoes 2.48076
lfemur -1.07049 7.98011 -19.6134
ltibia 24.1401
lfoot -20.0967 9.15281
ltoes -0.484508
72
root 47.8641 15.8981 13.6966 177.337 -52.253 -179.351
lowerback -0.741292 -1.66094 -1.78634
upperback 4.01063 -2.26325 0.344883
thorax 4.63455 -1.23653 1.24357
lowerneck -4.11704 -3.04573 -1.90652
upperneck 6.91852 -4.77358 8.26417
head 3.27077 -2.2142 2.87927
rclavicle -1.14587e-013 1.92821e-014
rhumerus -31.7524 -7.15035 -83.2826
rradius 29.0581
rwrist 1.85728
rhand -17.7944 -5.94548
rfingers 7.12502
rthumb 8.46873 -35.7557
lclavicle -1.14587e-013 1.92821e-014
lhumerus -28.0409 16.5833 81.8299
lradius 24.1117
lwrist 22.0766
lhand -15.5836 7.92937
lfingers 7.12502
lthumb 10.6019 37.6419
rfemur -9.7839 2.75073 19.9835
rtibia 37.4724
rfoot -26.0417 -11.0129
rtoes 2.48084
lfemur -1.08734 8.02662 -19.6469
ltibia 24.1289
lfoot -20.0902 9.09915
ltoes -0.459668
73
root 47.8654 15.8976 13.6977 177.389 -52.2746 -179.403
lowerback -0.739357 -1.66809 -1.81888
upperback 4.0095 -2.27121 0.330734
thorax 4.63334 -1.24136 1.24683
lowerneck -4.10088 -3.0456 -1.90208
upperneck 6.91753 -4.77321 8.25874
head 3.26694 -2.21449 2.87669
rclavicle 1.14612e-014 1.78906e-015
rhumerus -31.6962 -6.96748 -83.3691
rradius 29.3181
rwrist 1.76741
rhand -17.73 -6.01557
rfingers 7.12502
rthumb 8.53088 -35.8232
lclavicle 1.14612e-014 1.78906e-015
lhumerus -28.1276 16.7491 81.7234
lradius 23.9462
lwrist 21.9234
lhand -15.5704 7.93991
lfingers 7.12502
lthumb 10.6146 37.6518
rfemur -9.80297 2.74014 19.942
rtibia 37.4817
rfoot -26.0508 -11.0056
rtoes 2.49416
lfemur -1.10398 8.07236 -19.6754
ltibia 24.1205
lfoot -20.0858 9.04538
ltoes -0.433379
